<svg width="800" height="800" viewBox="0 0 800 800" fill="none" xmlns="http://www.w3.org/2000/svg">
<path d="M399.379 466.413C436.326 466.413 466.278 436.461 466.278 399.514C466.278 362.567 436.326 332.615 399.379 332.615C362.432 332.615 332.48 362.567 332.48 399.514C332.48 436.461 362.432 466.413 399.379 466.413Z" fill="#cdd6f4"/>
<path d="M741.905 399.492C741.905 388.57 734.527 373.797 714.879 357.403C695.673 341.379 666.968 325.787 630.309 313.168C623.174 310.713 615.754 308.373 608.072 306.151C598.794 336.177 586.447 367.712 571.605 399.687C587.001 432.104 599.896 464.064 609.525 494.54C613.809 493.269 618.004 491.957 622.104 490.599L622.106 490.598C661.519 477.546 692.292 461.116 712.868 444.176C733.924 426.841 741.905 411.086 741.905 399.492ZM587.293 533.445C556.062 540.667 521.821 545.894 485.878 549.086C465.618 578.418 444.516 605.389 423.071 628.852C429.388 634.932 435.664 640.659 441.873 646.004C470.86 670.943 498.218 687.313 521.214 695.402C544.656 703.649 560.896 702.457 570.42 696.945L570.422 696.944C580.335 691.21 590.09 676.626 594.947 650.452C599.696 624.864 599.147 590.982 591.347 551.586L591.346 551.583C590.172 545.65 588.818 539.601 587.293 533.445ZM213.096 534.889C210.978 543.422 209.149 551.742 207.618 559.815C200.494 597.379 199.976 629.258 204.451 653.223C209.013 677.652 218.153 691.127 227.682 696.625L228.152 696.89C238.152 702.38 255.507 703.372 280.218 694.646C304.759 685.979 333.838 668.583 364.067 642.152C368.824 637.993 373.591 633.599 378.366 628.987C356.585 605.613 334.856 578.813 314.02 549.494C278.324 546.599 244.264 541.779 213.096 534.889ZM444.638 551.823C429.719 552.49 414.605 552.827 399.38 552.827C384.638 552.827 369.998 552.545 355.536 551.976C370.409 571.573 385.559 589.675 400.646 605.953C415.427 589.676 430.161 571.501 444.638 551.823ZM399.38 279.506C376.16 279.506 353.325 280.387 331.172 282.061C318.67 300.368 306.497 319.707 294.854 339.899L294.852 339.903C283.247 360.017 272.598 380.236 262.978 400.262C272.595 420.24 283.271 440.45 294.95 460.63C306.648 480.838 318.921 500.263 331.542 518.688C353.556 520.117 376.266 520.827 399.38 520.827C422.749 520.827 445.734 520.012 468.02 518.415C480.307 499.992 492.317 480.6 503.909 460.497L503.91 460.496C515.586 440.252 526.363 419.935 536.113 399.836C526.276 379.961 515.456 359.841 503.812 339.726V339.724C492.221 319.699 480.13 300.402 467.72 282.081C445.586 280.392 422.721 279.506 399.38 279.506ZM246.007 437.885C236.437 460.588 228.308 482.786 221.73 504.021C243.26 508.708 266.418 512.401 290.754 515.115C282.708 502.628 274.856 489.791 267.256 476.662L267.255 476.661C259.784 463.753 252.697 450.806 246.007 437.885ZM553.376 436.773C546.5 450.03 539.238 463.293 531.63 476.484C524.166 489.428 516.503 502.138 508.676 514.539C533.323 511.578 556.769 507.591 578.521 502.627C571.77 481.479 563.304 459.397 553.376 436.773ZM508.735 286.225C516.517 298.422 524.121 310.933 531.506 323.692C539.012 336.658 546.215 349.678 553.066 362.687C562.522 340.544 570.577 318.9 577.047 298.161C555.689 293.288 532.793 289.269 508.735 286.225ZM290.095 286.161C266.213 289.145 243.436 293.071 222.188 297.825C228.654 318.658 236.613 340.385 245.984 362.622C252.658 349.698 259.714 336.77 267.134 323.911C274.578 311.001 282.248 298.403 290.095 286.161ZM569.934 103.133C560.475 97.679 543.993 96.69 519.975 105.52C496.497 114.15 468.648 131.226 439.399 156.678L439.398 156.679C433.697 161.639 427.953 166.905 422.181 172.458C443.733 195.683 465.051 222.376 485.484 251.478C521.028 254.812 554.761 260.178 585.656 267.305C586.883 262.278 588.001 257.324 589.006 252.449L589.394 250.547C597.424 210.685 598.46 176.488 594.133 150.607C589.634 123.703 579.972 108.921 569.934 103.133ZM280.414 106.808C254.864 97.271 237.232 98.2586 227.197 104.069L227.19 104.073C217.743 109.539 208.655 123.319 204.311 148.538C200.064 173.189 200.953 205.845 208.396 243.895L208.988 246.867C210.32 253.43 211.841 260.136 213.542 266.973C244.403 259.983 278.109 254.716 313.498 251.435C334.165 222.272 355.688 195.697 377.324 172.469C373.565 168.879 369.814 165.42 366.075 162.101C335.024 134.529 305.384 116.128 280.414 106.808ZM399.756 195.34C384.867 211.401 369.95 229.22 355.299 248.531C369.822 247.854 384.54 247.506 399.38 247.506C414.377 247.506 429.214 247.861 443.828 248.552C429.321 229.221 414.543 211.361 399.756 195.34ZM56.832 399.492C56.8321 410.952 64.5721 426.702 84.791 444.016C104.558 460.943 134.155 477.439 172.154 490.426L174.979 491.378C180.059 493.068 185.286 494.681 190.647 496.223C200.068 465.513 212.516 433.132 227.616 400.272C212.695 367.85 200.436 335.978 191.12 305.675C182.142 308.223 173.529 310.93 165.325 313.788C129.227 326.369 101.351 341.842 82.8252 357.688C63.9386 373.844 56.832 388.494 56.832 399.492ZM773.905 399.492C773.905 425.217 757.192 449.134 733.208 468.88C708.745 489.02 674.133 507.077 632.167 520.975L632.168 520.976C627.624 522.481 622.982 523.931 618.248 525.331C619.935 532.113 621.437 538.797 622.737 545.37C631.098 587.596 632.086 625.708 626.41 656.291C620.844 686.287 608.214 712.049 586.447 724.642L586.448 724.643C565.22 736.928 537.963 735.217 510.595 725.589C482.781 715.804 452.017 696.945 421.003 670.262L421 670.26C414.303 664.495 407.557 658.337 400.788 651.818C395.576 656.858 390.357 661.673 385.132 666.242L385.131 666.243C352.728 694.574 320.203 714.463 290.873 724.82C262.105 734.979 233.476 736.907 211.694 724.346L211.692 724.345C190.447 712.089 178.321 687.614 172.995 659.097C167.583 630.113 168.556 594.043 176.178 553.853C177.829 545.144 179.798 536.198 182.07 527.052C175.12 525.058 168.358 522.945 161.806 520.706C121.079 506.787 87.6016 488.553 63.9766 468.322C40.8032 448.478 24.8321 424.643 24.832 399.492C24.832 374.964 39.9774 352.229 62.0234 333.371C84.4303 314.205 116.168 297.033 154.794 283.571L154.796 283.57C163.646 280.487 172.904 277.579 182.525 274.851C180.423 266.411 178.576 258.133 176.992 250.042L176.991 250.041C169.047 209.431 167.681 172.68 172.775 143.105C177.772 114.1 189.62 88.8377 211.167 76.373C233.431 63.4841 262.5 65.9646 291.604 76.8271C321.29 87.9073 354.259 108.815 387.32 138.171C391.46 141.846 395.603 145.672 399.747 149.636C405.981 143.631 412.202 137.924 418.394 132.537C449.61 105.373 480.766 85.8388 508.933 75.4844C536.558 65.3288 564.359 62.9796 585.919 75.4111L585.918 75.4121C608.201 88.2607 620.571 114.687 625.694 145.33C630.839 176.098 629.324 214.38 620.761 256.882L620.348 258.909C619.236 264.304 617.996 269.776 616.639 275.317C623.852 277.399 630.866 279.583 637.663 281.869L640.722 282.909L640.723 282.91C679.849 296.378 712.338 313.606 735.381 332.832C757.981 351.689 773.905 374.6 773.905 399.492Z" fill="#cdd6f4"/>
</svg>
