<svg width="800" height="800" viewBox="0 0 800 800" fill="none" xmlns="http://www.w3.org/2000/svg">
<g clip-path="url(#clip0_4059_33570)">
<path d="M399.379 466.413C436.326 466.413 466.278 436.461 466.278 399.514C466.278 362.567 436.326 332.615 399.379 332.615C362.432 332.615 332.48 362.567 332.48 399.514C332.48 436.461 362.432 466.413 399.379 466.413Z" fill="#1E1E2E"/>
<path d="M399.38 263.506C489.182 263.506 572.618 276.395 635.515 298.039C711.301 324.126 757.905 363.677 757.905 399.492C757.905 436.81 708.516 478.838 627.136 505.787C565.61 526.171 484.628 536.827 399.38 536.827C311.965 536.827 229.214 526.834 166.98 505.566C88.2537 478.661 40.832 436.103 40.832 399.492C40.832 363.965 85.3354 324.723 160.06 298.68C223.201 276.682 308.693 263.506 399.38 263.506Z" stroke="#1E1E2E" stroke-width="32.0004" stroke-miterlimit="10"/>
<path d="M280.993 331.907C325.851 254.109 378.711 188.272 428.896 144.608C489.361 91.9912 546.908 71.3866 577.926 89.272C610.248 107.909 621.987 171.691 604.677 255.679C591.589 319.173 560.372 394.628 517.77 468.49C474.107 544.21 424.099 610.91 374.599 654.198C311.967 708.959 251.391 728.768 219.688 710.485C188.914 692.732 177.152 634.588 191.898 556.834C204.367 491.085 235.672 410.457 280.993 331.907Z" stroke="#1E1E2E" stroke-width="32.0004" stroke-miterlimit="10"/>
<path d="M281.103 468.646C236.114 390.914 205.472 312.254 192.694 246.969C177.306 168.308 188.184 108.153 219.179 90.223C251.479 71.5196 312.585 93.2076 376.698 150.136C425.181 193.18 474.946 257.912 517.659 331.709C561.455 407.362 594.285 483.989 607.042 548.478C623.203 630.1 610.115 692.467 578.434 710.794C547.682 728.591 491.439 709.755 431.438 658.133C380.766 614.514 326.535 547.129 281.103 468.646Z" stroke="#1E1E2E" stroke-width="32.0004" stroke-miterlimit="10"/>
</g>
<defs>
<clipPath id="clip0_4059_33570">
<rect width="800" height="800" fill="white"/>
</clipPath>
</defs>
</svg>
